<svg xmlns="http://www.w3.org/2000/svg" width="512" height="512" viewBox="-23 -23 46 46">
<g fill="#C8442E"><path transform="rotate(8) scale(1 1.15)" d="M0 0 C3 -1.8 4.1 -6.4 2.8 -11 C2 -13.7 1 -15.6 0 -16.6 C-1 -15.6 -2 -13.7 -2.8 -11 C-4.1 -6.4 -3 -1.8 0 0 Z"></path><path transform="rotate(68) scale(1 .88)" d="M0 0 C3 -1.8 4.1 -6.4 2.8 -11 C2 -13.7 1 -15.6 0 -16.6 C-1 -15.6 -2 -13.7 -2.8 -11 C-4.1 -6.4 -3 -1.8 0 0 Z"></path><path transform="rotate(128) scale(1 1.06)" d="M0 0 C3 -1.8 4.1 -6.4 2.8 -11 C2 -13.7 1 -15.6 0 -16.6 C-1 -15.6 -2 -13.7 -2.8 -11 C-4.1 -6.4 -3 -1.8 0 0 Z"></path><path transform="rotate(188) scale(1 .92)" d="M0 0 C3 -1.8 4.1 -6.4 2.8 -11 C2 -13.7 1 -15.6 0 -16.6 C-1 -15.6 -2 -13.7 -2.8 -11 C-4.1 -6.4 -3 -1.8 0 0 Z"></path><path transform="rotate(248) scale(1 1.1)" d="M0 0 C3 -1.8 4.1 -6.4 2.8 -11 C2 -13.7 1 -15.6 0 -16.6 C-1 -15.6 -2 -13.7 -2.8 -11 C-4.1 -6.4 -3 -1.8 0 0 Z"></path><path transform="rotate(308) scale(1 .95)" d="M0 0 C3 -1.8 4.1 -6.4 2.8 -11 C2 -13.7 1 -15.6 0 -16.6 C-1 -15.6 -2 -13.7 -2.8 -11 C-4.1 -6.4 -3 -1.8 0 0 Z"></path></g>
<circle cx="0" cy="0" r="4.6" fill="#F3C9B3"></circle>
</svg>